<svg version="1.1" id="Layer_1" xmlns="http://www.w3.org/2000/svg" xmlns:xlink="http://www.w3.org/1999/xlink" x="0px" y="0px"
	 width="100%" viewBox="0 0 710 1079" enable-background="new 0 0 710 1079" xml:space="preserve">
<path fill="#707070" opacity="1.000000" stroke="none" 
	d="
M57.067780,623.803101 
	C54.006824,605.604919 50.560154,587.880737 48.106873,570.020081 
	C45.845779,553.558655 45.105434,536.888000 42.831066,520.428833 
	C41.266796,509.108643 42.471008,498.576538 46.826057,488.094330 
	C49.815601,480.898773 54.799301,475.280090 60.911694,471.220032 
	C72.385391,463.598785 84.530022,456.991150 96.350533,449.886963 
	C101.982910,446.501892 107.605064,443.080902 113.023575,439.371887 
	C114.417320,438.417847 115.730972,436.377869 115.885925,434.724731 
	C119.732468,393.687073 130.474060,354.391998 146.296707,316.494873 
	C158.950455,286.187683 175.311157,257.861359 195.682953,232.069016 
	C205.294525,219.899963 215.322708,207.825104 226.645447,197.303894 
	C239.824203,185.058029 254.626892,174.559799 268.461639,163.513306 
	C268.536011,163.532150 267.506042,163.129288 266.446655,163.025192 
	C258.361420,162.230774 251.572998,155.471588 252.119339,147.546494 
	C252.853561,136.896027 254.409790,126.301254 255.651428,115.687050 
	C256.740387,106.377876 257.825104,97.067574 259.014771,87.770966 
	C260.515900,76.040924 262.096863,64.320900 263.691101,52.603050 
	C264.708160,45.127560 265.414551,37.580261 266.964935,30.213469 
	C269.612244,17.634455 278.195526,11.178999 290.471100,11.095192 
	C328.132019,10.838072 365.800232,10.678367 403.456055,11.185928 
	C415.745972,11.351585 423.594818,18.010143 425.820709,31.471670 
	C428.097992,45.244038 429.243256,59.200790 431.027893,73.058304 
	C432.516785,84.619461 434.303406,96.142258 435.793182,107.703293 
	C437.306458,119.446465 438.185974,131.288879 440.163391,142.948715 
	C441.573242,151.261719 438.702515,157.084030 432.036011,161.211456 
	C429.562714,162.742737 426.250946,162.919708 422.378601,163.970078 
	C424.635925,165.553360 426.454132,166.742477 428.179871,168.053284 
	C438.516205,175.904480 449.265686,183.281372 459.064636,191.756195 
	C480.659363,210.432846 498.456421,232.543930 513.822083,256.483673 
	C528.842346,279.885315 541.545288,304.509125 551.160339,330.744202 
	C560.164307,355.312012 566.565674,380.527618 571.799988,406.070465 
	C573.510620,414.418213 574.101257,423.008606 574.960510,431.512665 
	C575.466858,436.524384 577.792297,439.626221 582.249512,442.189972 
	C597.769226,451.116669 613.214600,460.204834 628.319458,469.811401 
	C642.208618,478.644836 649.930054,491.662231 648.815735,508.288879 
	C647.707458,524.825806 645.507446,541.322815 643.065491,557.730042 
	C638.335510,589.510193 628.144470,619.891174 617.904846,650.181091 
	C612.657776,665.702209 606.986816,681.234009 599.726624,695.877991 
	C592.232910,710.992859 579.127319,719.685669 561.641541,719.925964 
	C553.312988,720.040405 544.974365,719.238708 536.638123,719.184753 
	C535.408264,719.176819 533.598083,720.756592 533.015747,722.037842 
	C524.378906,741.039124 516.605774,760.466919 507.238831,779.095154 
	C489.953186,813.471436 470.308533,846.522278 447.618103,878.115417 
	C455.922852,888.445984 464.409180,898.297180 472.090363,908.740662 
	C481.126038,921.025696 489.839081,933.586182 498.004944,946.463013 
	C507.395905,961.271729 513.688904,977.447083 517.405640,994.673279 
	C521.381470,1013.099731 520.863464,1030.954346 511.975586,1047.943115 
	C505.914032,1059.529541 496.174835,1065.927246 483.239838,1068.078491 
	C462.997711,1071.444824 444.493195,1065.786255 426.242554,1058.087891 
	C407.017120,1049.978271 390.038513,1038.139771 372.940552,1026.459839 
	C368.471558,1023.406982 363.702087,1020.790833 359.044769,1018.017517 
	C348.284119,1011.609863 337.865997,1013.340088 327.874176,1019.714844 
	C316.244873,1027.134277 304.827850,1034.885742 293.230499,1042.356201 
	C275.444702,1053.812866 256.699280,1063.241577 235.809692,1067.522949 
	C222.872910,1070.174438 209.834747,1070.356567 197.404953,1065.049316 
	C181.713196,1058.349365 174.690689,1045.076538 172.078018,1029.195923 
	C168.147995,1005.308044 174.908020,983.195740 184.667542,961.826599 
	C195.938217,937.148621 211.514404,915.141296 227.839798,893.631653 
	C230.619995,889.968445 233.496048,886.341553 235.847473,882.410522 
	C236.602280,881.148682 236.449753,878.561279 235.631424,877.260010 
	C225.053894,860.439636 213.503342,844.181274 203.748184,826.905945 
	C190.649948,803.710205 178.449799,779.973755 166.725479,756.047241 
	C158.423798,739.105652 151.187119,721.610107 144.156158,704.088501 
	C138.906189,691.005249 134.551712,677.547485 130.229507,664.117737 
	C129.112854,660.648132 127.554901,659.747437 124.290474,659.960083 
	C117.189400,660.422791 110.073860,660.949219 102.964615,660.943848 
	C85.796196,660.930786 71.757439,654.595581 62.973549,639.271423 
	C60.325649,634.651917 59.030228,629.257202 57.067780,623.803101 
M458.687073,213.271545 
	C446.765259,201.381561 434.219177,190.280411 419.542389,181.803818 
	C412.264954,177.600739 405.713318,172.735001 405.715454,163.308136 
	C365.459473,163.308136 325.737122,163.308136 285.902679,163.308136 
	C285.528290,169.385330 283.284058,174.314819 278.537567,177.734512 
	C267.510956,185.678833 256.137421,193.164627 245.398392,201.474579 
	C240.698441,205.111435 237.206955,210.309998 232.432281,214.649582 
	C231.287201,215.598709 229.951813,216.391785 229.026108,217.520782 
	C218.356613,230.533600 206.979813,243.053223 197.286011,256.761139 
	C177.270126,285.065430 162.057175,315.964783 150.945694,348.837128 
	C140.840927,378.731140 134.289062,409.395233 130.928864,440.766815 
	C130.463043,445.115997 128.715271,448.835632 124.496048,451.298004 
	C108.405655,460.688446 92.484421,470.368225 76.431717,479.823975 
	C67.898994,484.850098 60.200294,490.907684 59.170643,501.349487 
	C58.254116,510.644073 58.376781,520.165466 59.214806,529.481079 
	C60.659836,545.544250 62.693386,561.573853 65.082481,577.527344 
	C67.370934,592.808655 69.926918,608.086365 73.285576,623.160645 
	C76.562691,637.869019 89.778717,646.882019 104.484253,646.030823 
	C114.083435,645.475159 123.710022,645.409729 133.317200,644.969177 
	C138.845490,644.715637 141.724884,647.186035 143.314224,652.481201 
	C146.246857,662.251770 149.710785,671.864014 153.007858,681.523682 
	C162.932510,710.600647 175.124695,738.753845 188.799866,766.215332 
	C197.917542,784.524841 207.703217,802.559753 218.232773,820.091248 
	C228.319580,836.885620 239.619064,852.962219 250.648880,869.175171 
	C256.395569,877.622314 256.444061,882.099670 249.964035,890.548828 
	C243.848038,898.523315 237.672318,906.466187 231.903580,914.690002 
	C218.833984,933.321899 205.497726,951.844666 196.989761,973.179688 
	C190.165695,990.292114 185.065628,1007.631104 187.877884,1026.590210 
	C190.542557,1044.554321 203.317337,1055.753296 220.975616,1053.935181 
	C235.185272,1052.471802 249.109207,1049.240845 261.472931,1042.030273 
	C280.819550,1030.747070 299.638397,1018.560852 318.721619,1006.823547 
	C334.111328,997.358093 350.168060,994.642151 366.350067,1004.254700 
	C382.358917,1013.764343 397.615509,1024.544922 413.666962,1033.976929 
	C433.218323,1045.465576 453.470428,1055.086426 477.292938,1053.113892 
	C487.799133,1052.244019 496.358521,1046.367065 500.067902,1036.366211 
	C505.144043,1022.680542 505.069275,1008.853821 501.453674,994.995422 
	C495.062103,970.496582 482.412598,949.095154 467.419006,929.058960 
	C457.248779,915.468262 446.291138,902.467834 435.731567,889.166992 
	C428.708618,880.320984 428.544342,877.782043 435.214844,868.305603 
	C454.130707,841.432739 471.765564,813.755493 486.713898,784.479492 
	C499.100189,760.221252 511.511322,735.934265 520.443604,710.092834 
	C522.004272,705.577820 524.980896,703.605835 529.888855,703.939331 
	C537.992432,704.490051 546.120972,704.889771 554.241272,704.933960 
	C572.238281,705.031860 582.824158,698.567627 589.825134,680.006714 
	C597.086792,660.755005 604.014404,641.361572 610.458679,621.822571 
	C615.144714,607.614746 619.642090,593.245300 622.722351,578.631470 
	C626.923950,558.698120 629.573547,538.441833 633.122498,518.365356 
	C636.003357,502.068054 630.863953,489.530060 616.611023,480.851318 
	C599.856567,470.649323 583.193726,460.295471 566.365540,450.217255 
	C562.335022,447.803436 560.728577,444.219116 560.081360,440.103607 
	C557.935059,426.455627 556.461731,412.689270 553.937561,399.115753 
	C548.189636,368.207214 538.502014,338.531982 525.060669,310.070129 
	C514.167358,287.003815 501.562134,264.952637 485.827271,244.872986 
	C477.396973,234.114838 467.902191,224.190811 458.687073,213.271545 
M338.000000,98.500000 
	C338.000000,90.174759 338.000092,81.849525 337.999939,73.524284 
	C337.999695,59.537868 337.912872,45.550537 338.061340,31.565701 
	C338.097229,28.183823 337.194977,26.683168 333.591064,26.944704 
	C329.946747,27.209175 326.236786,26.740364 322.623322,27.166712 
	C321.326569,27.319719 319.336243,29.031586 319.182922,30.227020 
	C318.216583,37.760727 317.667572,45.348389 317.001221,52.920033 
	C316.262024,61.319450 315.636841,69.730034 314.795807,78.119087 
	C313.610413,89.942688 312.200623,101.743828 311.023590,113.568199 
	C310.188538,121.957458 309.601593,130.371185 308.856323,138.769760 
	C308.631531,141.302887 308.247406,143.821854 307.856049,146.998474 
	C317.000000,146.998474 325.289886,146.847824 333.569824,147.068848 
	C337.137268,147.164078 338.098877,145.870239 338.062866,142.457611 
	C337.911713,128.139786 337.999634,113.819427 338.000000,98.500000 
M378.013763,86.301903 
	C377.678955,82.848701 377.364044,79.393448 377.005798,75.942688 
	C375.709961,63.459969 374.456818,50.972355 373.059937,38.500885 
	C372.638062,34.734695 373.040985,29.335340 370.835327,27.708447 
	C368.209717,25.771769 363.160583,27.317327 359.201172,26.938887 
	C354.970520,26.534525 353.889923,28.176786 353.914551,32.275711 
	C354.079407,59.754078 353.999908,87.233917 354.000061,114.713272 
	C354.000122,124.039597 353.909973,133.367767 354.098633,142.690292 
	C354.127533,144.117676 355.407990,146.724472 356.173553,146.748520 
	C365.262238,147.033875 374.363037,146.932327 383.950989,146.932327 
	C383.950989,143.804413 384.169556,141.323822 383.913910,138.893097 
	C382.670593,127.071373 381.310272,115.261879 379.970673,103.450409 
	C379.356964,98.038956 378.695648,92.632896 378.013763,86.301903 
M396.999573,117.602219 
	C397.709717,126.007133 398.273102,134.429459 399.266113,142.800812 
	C399.443726,144.298172 401.335999,146.715027 402.543243,146.781937 
	C409.468109,147.165649 416.425171,146.968597 424.049347,146.968597 
	C423.848175,143.904587 423.793152,141.479126 423.506592,139.081314 
	C423.095367,135.640945 422.417175,132.231964 422.024872,128.789978 
	C420.584320,116.150833 419.353729,103.486320 417.784607,90.863617 
	C415.646973,73.667603 413.334320,56.492500 410.967743,39.326210 
	C409.984314,32.192863 409.789093,26.958765 399.744873,27.913528 
	C397.990814,28.080265 396.152222,27.760502 394.396545,27.431295 
	C389.406616,26.495598 388.553894,29.182634 388.989197,33.272812 
	C390.020599,42.964138 391.037903,52.657612 391.958771,62.359905 
	C393.676605,80.459045 395.321869,98.565079 396.999573,117.602219 
M296.944214,98.227249 
	C297.628845,90.828064 298.346405,83.431755 298.990662,76.029060 
	C300.050507,63.851677 300.716797,51.628197 302.187347,39.501564 
	C303.832916,25.931705 303.513153,25.460390 289.969116,27.839870 
	C284.976196,28.717049 282.444702,31.130325 281.921417,36.277702 
	C281.104431,44.314182 279.826599,52.303555 278.758728,60.314842 
	C277.168610,72.243790 275.568024,84.171425 274.014893,96.105209 
	C272.376740,108.692467 270.764923,121.283295 269.193024,133.878983 
	C268.673462,138.042175 268.313782,142.225311 267.855682,146.643555 
	C276.347748,146.643555 283.904572,146.643555 291.875641,146.643555 
	C292.938629,136.177933 293.957733,126.017799 295.007202,115.860809 
	C295.583344,110.285049 296.210663,104.714584 296.944214,98.227249 
z"/>
<path fill="#220F07" opacity="1.000000" stroke="none" 
	d="
M458.887787,213.890381 
	C467.902191,224.190811 477.396973,234.114838 485.827271,244.872986 
	C501.562134,264.952637 514.167358,287.003815 525.060669,310.070129 
	C538.502014,338.531982 548.189636,368.207214 553.937561,399.115753 
	C556.461731,412.689270 557.935059,426.455627 560.081360,440.103607 
	C560.728577,444.219116 562.335022,447.803436 566.365540,450.217255 
	C583.193726,460.295471 599.856567,470.649323 616.611023,480.851318 
	C630.863953,489.530060 636.003357,502.068054 633.122498,518.365356 
	C629.573547,538.441833 626.923950,558.698120 622.722351,578.631470 
	C619.642090,593.245300 615.144714,607.614746 610.458679,621.822571 
	C604.014404,641.361572 597.086792,660.755005 589.825134,680.006714 
	C582.824158,698.567627 572.238281,705.031860 554.241272,704.933960 
	C546.120972,704.889771 537.992432,704.490051 529.888855,703.939331 
	C524.980896,703.605835 522.004272,705.577820 520.443604,710.092834 
	C511.511322,735.934265 499.100189,760.221252 486.713898,784.479492 
	C471.765564,813.755493 454.130707,841.432739 435.214844,868.305603 
	C428.544342,877.782043 428.708618,880.320984 435.731567,889.166992 
	C446.291138,902.467834 457.248779,915.468262 467.419006,929.058960 
	C482.412598,949.095154 495.062103,970.496582 501.453674,994.995422 
	C505.069275,1008.853821 505.144043,1022.680542 500.067902,1036.366211 
	C496.358521,1046.367065 487.799133,1052.244019 477.292938,1053.113892 
	C453.470428,1055.086426 433.218323,1045.465576 413.666962,1033.976929 
	C397.615509,1024.544922 382.358917,1013.764343 366.350067,1004.254700 
	C350.168060,994.642151 334.111328,997.358093 318.721619,1006.823547 
	C299.638397,1018.560852 280.819550,1030.747070 261.472931,1042.030273 
	C249.109207,1049.240845 235.185272,1052.471802 220.975616,1053.935181 
	C203.317337,1055.753296 190.542557,1044.554321 187.877884,1026.590210 
	C185.065628,1007.631104 190.165695,990.292114 196.989761,973.179688 
	C205.497726,951.844666 218.833984,933.321899 231.903580,914.690002 
	C237.672318,906.466187 243.848038,898.523315 249.964035,890.548828 
	C256.444061,882.099670 256.395569,877.622314 250.648880,869.175171 
	C239.619064,852.962219 228.319580,836.885620 218.232773,820.091248 
	C207.703217,802.559753 197.917542,784.524841 188.799866,766.215332 
	C175.124695,738.753845 162.932510,710.600647 153.007858,681.523682 
	C149.710785,671.864014 146.246857,662.251770 143.314224,652.481201 
	C141.724884,647.186035 138.845490,644.715637 133.317200,644.969177 
	C123.710022,645.409729 114.083435,645.475159 104.484253,646.030823 
	C89.778717,646.882019 76.562691,637.869019 73.285576,623.160645 
	C69.926918,608.086365 67.370934,592.808655 65.082481,577.527344 
	C62.693386,561.573853 60.659836,545.544250 59.214806,529.481079 
	C58.376781,520.165466 58.254116,510.644073 59.170643,501.349487 
	C60.200294,490.907684 67.898994,484.850098 76.431717,479.823975 
	C92.484421,470.368225 108.405655,460.688446 124.496048,451.298004 
	C128.715271,448.835632 130.463043,445.115997 130.928864,440.766815 
	C134.289062,409.395233 140.840927,378.731140 150.945694,348.837128 
	C162.057175,315.964783 177.270126,285.065430 197.286011,256.761139 
	C206.979813,243.053223 218.356613,230.533600 229.026108,217.520782 
	C229.951813,216.391785 231.287201,215.598709 233.191559,214.815262 
	C234.854156,215.277313 235.738129,215.670029 236.663651,215.855804 
	C253.597412,219.254761 270.470215,223.022339 287.496185,225.874863 
	C299.551208,227.894577 311.790894,229.419189 323.991394,229.808197 
	C338.863434,230.282425 353.803680,229.734070 368.671814,228.883270 
	C382.026611,228.119080 395.455658,227.108719 408.613190,224.828857 
	C425.496277,221.903427 442.140594,217.600082 458.887787,213.890381 
M410.520264,471.028015 
	C406.280579,463.634033 402.040894,456.240051 397.694427,448.659790 
	C399.719055,447.983337 401.091888,447.401794 402.522339,447.065216 
	C422.862549,442.279083 442.258942,434.956421 460.629089,425.036530 
	C466.841919,421.681610 472.922150,417.946136 478.570679,413.725677 
	C482.739532,410.610809 482.731201,406.318420 479.698853,402.411469 
	C477.497650,399.575378 472.661835,399.218384 468.912048,401.473724 
	C461.425323,405.976624 454.124695,410.863770 446.339417,414.781952 
	C419.213135,428.433929 390.258026,435.877869 360.063599,437.840088 
	C341.706940,439.033020 323.212585,438.436066 305.094910,434.802979 
	C276.223206,429.013336 249.121384,418.599792 224.556747,402.069763 
	C219.514328,398.676666 215.067352,399.248322 211.983429,403.571686 
	C209.391418,407.205475 210.874100,412.137787 215.516235,415.229431 
	C231.941315,426.168549 249.600189,434.621582 268.271790,440.899261 
	C276.872406,443.790924 285.680634,446.065033 294.581390,448.673889 
	C293.992157,449.740387 293.545410,450.613159 293.041473,451.451538 
	C282.922760,468.284882 272.852539,485.114777 267.794006,504.390656 
	C263.109802,522.240051 266.527802,535.309998 284.393341,544.316467 
	C302.451050,553.419739 321.716034,556.069702 341.363495,556.822144 
	C350.882294,557.186768 360.513824,556.021484 370.021759,554.921631 
	C384.007355,553.303894 397.581207,549.852844 409.992493,542.949463 
	C422.845398,535.800415 427.872681,524.182922 425.174622,509.992004 
	C422.585480,496.374084 417.206482,483.866394 410.520264,471.028015 
M387.969116,283.559540 
	C382.354523,290.813416 380.688446,299.071960 382.505768,307.878632 
	C384.789368,318.944641 395.816925,328.084961 410.007141,327.137695 
	C419.626984,326.495544 426.480682,322.473419 431.326111,314.324524 
	C436.658600,305.356415 436.558044,296.088989 431.566895,287.448120 
	C422.140869,271.129395 398.834595,271.215973 387.969116,283.559540 
z"/>
<path fill="#E3E6EB" opacity="1.000000" stroke="none" 
	d="
M458.787415,213.580963 
	C442.140594,217.600082 425.496277,221.903427 408.613190,224.828857 
	C395.455658,227.108719 382.026611,228.119080 368.671814,228.883270 
	C353.803680,229.734070 338.863434,230.282425 323.991394,229.808197 
	C311.790894,229.419189 299.551208,227.894577 287.496185,225.874863 
	C270.470215,223.022339 253.597412,219.254761 236.663651,215.855804 
	C235.738129,215.670029 234.854156,215.277313 233.558777,214.890167 
	C237.206955,210.309998 240.698441,205.111435 245.398392,201.474579 
	C256.137421,193.164627 267.510956,185.678833 278.537567,177.734512 
	C283.284058,174.314819 285.528290,169.385330 285.902679,163.308136 
	C325.737122,163.308136 365.459473,163.308136 405.715454,163.308136 
	C405.713318,172.735001 412.264954,177.600739 419.542389,181.803818 
	C434.219177,190.280411 446.765259,201.381561 458.787415,213.580963 
z"/>
<path fill="#D34B45" opacity="1.000000" stroke="none" 
	d="
M338.000000,99.000000 
	C337.999634,113.819427 337.911713,128.139786 338.062866,142.457611 
	C338.098877,145.870239 337.137268,147.164078 333.569824,147.068848 
	C325.289886,146.847824 317.000000,146.998474 307.856049,146.998474 
	C308.247406,143.821854 308.631531,141.302887 308.856323,138.769760 
	C309.601593,130.371185 310.188538,121.957458 311.023590,113.568199 
	C312.200623,101.743828 313.610413,89.942688 314.795807,78.119087 
	C315.636841,69.730034 316.262024,61.319450 317.001221,52.920033 
	C317.667572,45.348389 318.216583,37.760727 319.182922,30.227020 
	C319.336243,29.031586 321.326569,27.319719 322.623322,27.166712 
	C326.236786,26.740364 329.946747,27.209175 333.591064,26.944704 
	C337.194977,26.683168 338.097229,28.183823 338.061340,31.565701 
	C337.912872,45.550537 337.999695,59.537868 337.999939,73.524284 
	C338.000092,81.849525 338.000000,90.174759 338.000000,99.000000 
z"/>
<path fill="#D34B45" opacity="1.000000" stroke="none" 
	d="
M378.034851,86.763153 
	C378.695648,92.632896 379.356964,98.038956 379.970673,103.450409 
	C381.310272,115.261879 382.670593,127.071373 383.913910,138.893097 
	C384.169556,141.323822 383.950989,143.804413 383.950989,146.932327 
	C374.363037,146.932327 365.262238,147.033875 356.173553,146.748520 
	C355.407990,146.724472 354.127533,144.117676 354.098633,142.690292 
	C353.909973,133.367767 354.000122,124.039597 354.000061,114.713272 
	C353.999908,87.233917 354.079407,59.754078 353.914551,32.275711 
	C353.889923,28.176786 354.970520,26.534525 359.201172,26.938887 
	C363.160583,27.317327 368.209717,25.771769 370.835327,27.708447 
	C373.040985,29.335340 372.638062,34.734695 373.059937,38.500885 
	C374.456818,50.972355 375.709961,63.459969 377.005798,75.942688 
	C377.364044,79.393448 377.678955,82.848701 378.034851,86.763153 
z"/>
<path fill="#D34B45" opacity="1.000000" stroke="none" 
	d="
M396.998474,117.135223 
	C395.321869,98.565079 393.676605,80.459045 391.958771,62.359905 
	C391.037903,52.657612 390.020599,42.964138 388.989197,33.272812 
	C388.553894,29.182634 389.406616,26.495598 394.396545,27.431295 
	C396.152222,27.760502 397.990814,28.080265 399.744873,27.913528 
	C409.789093,26.958765 409.984314,32.192863 410.967743,39.326210 
	C413.334320,56.492500 415.646973,73.667603 417.784607,90.863617 
	C419.353729,103.486320 420.584320,116.150833 422.024872,128.789978 
	C422.417175,132.231964 423.095367,135.640945 423.506592,139.081314 
	C423.793152,141.479126 423.848175,143.904587 424.049347,146.968597 
	C416.425171,146.968597 409.468109,147.165649 402.543243,146.781937 
	C401.335999,146.715027 399.443726,144.298172 399.266113,142.800812 
	C398.273102,134.429459 397.709717,126.007133 396.998474,117.135223 
z"/>
<path fill="#D34B45" opacity="1.000000" stroke="none" 
	d="
M296.879578,98.684494 
	C296.210663,104.714584 295.583344,110.285049 295.007202,115.860809 
	C293.957733,126.017799 292.938629,136.177933 291.875641,146.643555 
	C283.904572,146.643555 276.347748,146.643555 267.855682,146.643555 
	C268.313782,142.225311 268.673462,138.042175 269.193024,133.878983 
	C270.764923,121.283295 272.376740,108.692467 274.014893,96.105209 
	C275.568024,84.171425 277.168610,72.243790 278.758728,60.314842 
	C279.826599,52.303555 281.104431,44.314182 281.921417,36.277702 
	C282.444702,31.130325 284.976196,28.717049 289.969116,27.839870 
	C303.513153,25.460390 303.832916,25.931705 302.187347,39.501564 
	C300.716797,51.628197 300.050507,63.851677 298.990662,76.029060 
	C298.346405,83.431755 297.628845,90.828064 296.879578,98.684494 
z"/>
<path fill="#707070" opacity="1.000000" stroke="none" 
	d="
M410.708740,471.349609 
	C417.206482,483.866394 422.585480,496.374084 425.174622,509.992004 
	C427.872681,524.182922 422.845398,535.800415 409.992493,542.949463 
	C397.581207,549.852844 384.007355,553.303894 370.021759,554.921631 
	C360.513824,556.021484 350.882294,557.186768 341.363495,556.822144 
	C321.716034,556.069702 302.451050,553.419739 284.393341,544.316467 
	C266.527802,535.309998 263.109802,522.240051 267.794006,504.390656 
	C272.852539,485.114777 282.922760,468.284882 293.041473,451.451538 
	C293.545410,450.613159 293.992157,449.740387 294.581390,448.673889 
	C285.680634,446.065033 276.872406,443.790924 268.271790,440.899261 
	C249.600189,434.621582 231.941315,426.168549 215.516235,415.229431 
	C210.874100,412.137787 209.391418,407.205475 211.983429,403.571686 
	C215.067352,399.248322 219.514328,398.676666 224.556747,402.069763 
	C249.121384,418.599792 276.223206,429.013336 305.094910,434.802979 
	C323.212585,438.436066 341.706940,439.033020 360.063599,437.840088 
	C390.258026,435.877869 419.213135,428.433929 446.339417,414.781952 
	C454.124695,410.863770 461.425323,405.976624 468.912048,401.473724 
	C472.661835,399.218384 477.497650,399.575378 479.698853,402.411469 
	C482.731201,406.318420 482.739532,410.610809 478.570679,413.725677 
	C472.922150,417.946136 466.841919,421.681610 460.629089,425.036530 
	C442.258942,434.956421 422.862549,442.279083 402.522339,447.065216 
	C401.091888,447.401794 399.719055,447.983337 397.694427,448.659790 
	C402.040894,456.240051 406.280579,463.634033 410.708740,471.349609 
M394.896240,475.664795 
	C390.393707,467.620728 385.891174,459.576691 381.502686,451.736359 
	C375.274750,452.193909 369.520264,452.435089 363.809723,453.071075 
	C348.091492,454.821625 332.450775,454.402130 316.796600,452.223358 
	C314.539642,451.909210 310.771149,452.409607 309.878571,453.866455 
	C299.016296,471.595703 288.542450,489.563141 282.667969,509.740875 
	C279.863159,519.374695 281.373169,523.943115 289.805420,529.332825 
	C292.816345,531.257324 296.180817,532.756714 299.558777,533.958557 
	C323.857147,542.604248 348.868286,543.226013 373.844818,538.613464 
	C384.161346,536.708252 394.153748,532.221313 403.804749,527.833435 
	C410.092224,524.974792 412.282074,518.936584 409.884979,512.416870 
	C405.407745,500.239624 400.086365,488.372711 394.896240,475.664795 
z"/>
<path fill="#707070" opacity="1.000000" stroke="none" 
	d="
M388.218811,283.295166 
	C398.834595,271.215973 422.140869,271.129395 431.566895,287.448120 
	C436.558044,296.088989 436.658600,305.356415 431.326111,314.324524 
	C426.480682,322.473419 419.626984,326.495544 410.007141,327.137695 
	C395.816925,328.084961 384.789368,318.944641 382.505768,307.878632 
	C380.688446,299.071960 382.354523,290.813416 388.218811,283.295166 
z"/>
<path fill="#220F07" opacity="1.000000" stroke="none" 
	d="
M395.006226,476.020752 
	C400.086365,488.372711 405.407745,500.239624 409.884979,512.416870 
	C412.282074,518.936584 410.092224,524.974792 403.804749,527.833435 
	C394.153748,532.221313 384.161346,536.708252 373.844818,538.613464 
	C348.868286,543.226013 323.857147,542.604248 299.558777,533.958557 
	C296.180817,532.756714 292.816345,531.257324 289.805420,529.332825 
	C281.373169,523.943115 279.863159,519.374695 282.667969,509.740875 
	C288.542450,489.563141 299.016296,471.595703 309.878571,453.866455 
	C310.771149,452.409607 314.539642,451.909210 316.796600,452.223358 
	C332.450775,454.402130 348.091492,454.821625 363.809723,453.071075 
	C369.520264,452.435089 375.274750,452.193909 381.502686,451.736359 
	C385.891174,459.576691 390.393707,467.620728 395.006226,476.020752 
z"/>
</svg>