<svg version="1.1" id="Layer_1" xmlns="http://www.w3.org/2000/svg" xmlns:xlink="http://www.w3.org/1999/xlink" x="0px" y="0px"
	 width="100%" viewBox="0 0 710 1079" enable-background="new 0 0 710 1079" xml:space="preserve">
<path fill="#707070" opacity="1.000000" stroke="none" 
	d="
M641.000793,569.988770 
	C633.651062,596.105225 626.892883,621.975098 618.797546,647.419556 
	C613.586609,663.798157 607.289612,679.972351 599.868896,695.466919 
	C592.457520,710.941772 579.230652,719.619080 561.580933,719.922852 
	C553.274231,720.065796 544.953735,719.239197 536.637451,719.186096 
	C535.406982,719.178223 533.596497,720.762756 533.013000,722.046326 
	C524.373962,741.049438 516.569641,760.462830 507.235382,779.112305 
	C490.147858,813.252502 470.456665,845.915894 448.476349,877.166687 
	C448.299225,877.418518 448.259521,877.767029 447.980988,878.580261 
	C455.944336,888.479004 464.439911,898.328857 472.123871,908.775696 
	C481.161469,921.062805 489.867737,933.631409 498.035675,946.510437 
	C507.429169,961.321960 514.225403,977.411621 517.287476,994.758545 
	C520.514954,1013.042480 521.128601,1031.298950 511.843018,1048.331909 
	C505.703369,1059.594238 496.078156,1065.961426 483.321442,1068.075928 
	C463.083038,1071.430664 444.573334,1065.808716 426.310730,1058.112427 
	C407.076569,1050.006836 390.097839,1038.168091 372.989410,1026.499878 
	C368.516571,1023.449280 363.769562,1020.794312 359.099426,1018.040833 
	C348.362427,1011.710510 337.927643,1013.276001 327.918732,1019.672791 
	C316.293243,1027.102661 304.873474,1034.853760 293.274719,1042.326172 
	C275.487854,1053.785156 256.729431,1063.150391 235.855881,1067.531372 
	C224.235352,1069.970337 212.513458,1070.081909 201.079834,1066.502563 
	C184.374146,1061.272827 174.940781,1047.062988 172.045731,1029.237915 
	C168.220184,1005.683533 174.664963,983.782227 184.189484,962.724915 
	C195.500473,937.718079 211.244995,915.384644 227.829788,893.639282 
	C230.618988,889.982117 233.534149,886.370361 235.819550,882.407959 
	C236.592972,881.066956 236.225876,878.316467 235.321213,876.874146 
	C224.849823,860.178711 213.406860,844.044067 203.742157,826.903259 
	C190.657211,803.696594 178.443100,779.965576 166.718414,756.036621 
	C158.416168,739.092407 151.176422,721.594727 144.155487,704.066528 
	C139.097198,691.438171 135.046219,678.396118 130.834595,665.444763 
	C129.533157,661.442627 127.845413,659.423767 123.248077,659.904480 
	C116.509407,660.609009 109.702682,660.953613 102.925697,660.943787 
	C85.751785,660.918823 71.358810,654.742737 63.069988,639.175171 
	C59.072140,631.666687 56.959831,622.945312 55.159241,614.523865 
	C52.315369,601.223022 50.219948,587.746338 48.251938,574.279175 
	C46.800602,564.347839 45.954239,554.322571 45.025898,544.321716 
	C43.913174,532.334534 42.149845,520.324585 42.210320,508.332214 
	C42.290092,492.513245 48.582092,479.015930 62.342098,470.271301 
	C76.618546,461.198517 90.931679,452.042175 105.958427,444.347260 
	C114.226631,440.113251 115.908112,434.102020 117.121620,426.168457 
	C119.499283,410.623871 122.396332,395.137146 125.705574,379.761475 
	C131.389694,353.351471 140.309570,327.919159 152.002716,303.636841 
	C159.546799,287.970642 168.442963,272.893158 177.566788,258.064758 
	C190.997559,236.236526 206.562012,215.839523 225.399750,198.442032 
	C238.994278,185.886871 254.106613,174.975143 268.306305,163.520569 
	C267.166840,163.256805 264.779266,163.015640 262.641144,162.154846 
	C253.772858,158.584457 250.253464,150.136505 252.168365,139.527710 
	C253.859116,130.160873 254.736450,120.648094 256.008270,111.204514 
	C257.937653,96.878372 259.944031,82.562439 261.829803,68.230598 
	C263.288574,57.143616 264.834503,46.060947 265.939453,34.936409 
	C267.274231,21.498394 275.691010,11.083303 291.034698,11.037436 
	C328.363953,10.925843 365.693878,10.954279 403.023315,11.028280 
	C414.933502,11.051890 423.981049,18.949089 425.866943,31.528385 
	C427.938232,45.344536 429.241577,59.274136 431.031219,73.134727 
	C432.524261,84.698441 434.334137,96.221268 435.824249,107.785332 
	C437.338013,119.533051 438.216187,131.378540 440.165253,143.048843 
	C441.515350,151.132584 438.854218,156.887390 432.332367,160.952255 
	C429.815887,162.520721 426.512299,162.826324 422.895447,163.908295 
	C423.758392,164.676407 424.500244,165.579758 425.445129,166.141571 
	C441.272064,175.551620 455.627411,186.974335 468.381317,200.104355 
	C489.430786,221.774597 507.985077,245.377747 523.142090,271.746674 
	C537.306885,296.389435 549.398376,321.885590 557.289246,349.084381 
	C563.579102,370.765137 567.987549,393.000458 572.942017,415.054565 
	C574.446716,421.752472 574.832214,428.695587 576.084045,435.460938 
	C576.391174,437.120758 577.750977,439.082306 579.199463,439.957031 
	C592.421509,447.941711 605.815002,455.641998 619.067139,463.577728 
	C628.833862,469.426331 638.697937,475.457916 643.631958,486.310669 
	C646.159058,491.869202 648.429626,498.009674 648.778931,504.005798 
	C649.830078,522.048950 646.790283,539.818787 643.283325,557.476501 
	C642.485046,561.495850 641.775757,565.532898 641.000793,569.988770 
M423.350647,138.859985 
	C423.178253,137.570343 423.005859,136.280701 422.905945,134.389267 
	C422.817749,133.786499 422.729553,133.183716 422.351929,131.787323 
	C422.179077,129.521927 422.006256,127.256531 421.905914,124.389305 
	C421.817749,123.786530 421.729553,123.183746 421.356171,121.801292 
	C421.181915,119.864571 421.007690,117.927856 420.905945,115.389305 
	C420.817749,114.786530 420.729553,114.183746 420.369873,112.849152 
	C420.191071,111.563148 420.012268,110.277138 419.905975,108.389305 
	C419.817780,107.786522 419.729584,107.183739 419.362091,105.821358 
	C419.185883,104.211281 419.009644,102.601212 418.905945,100.389305 
	C418.817780,99.786522 418.729584,99.183739 418.362091,97.821358 
	C418.185883,96.211281 418.009644,94.601212 417.905945,92.389305 
	C417.817749,91.786522 417.729584,91.183746 417.369873,89.849152 
	C417.191071,88.563148 417.012238,87.277138 416.905945,85.389305 
	C416.817749,84.786522 416.729584,84.183746 416.362122,82.821358 
	C416.185883,81.211281 416.009674,79.601204 415.905945,77.389305 
	C415.817749,76.786522 415.729553,76.183746 415.356171,74.801292 
	C415.181915,72.864571 415.007690,70.927856 414.905945,68.389305 
	C414.817749,67.786522 414.729584,67.183746 414.356171,65.801292 
	C414.181915,63.864571 414.007660,61.927849 413.905914,59.389309 
	C413.817749,58.786530 413.729553,58.183746 413.362091,56.821354 
	C413.185852,55.211281 413.009644,53.601204 412.905945,51.389305 
	C412.817749,50.786526 412.729584,50.183743 412.380096,48.889240 
	C412.197876,47.923203 412.015656,46.957165 411.905945,45.389305 
	C411.817780,44.786522 411.729584,44.183743 411.369873,42.849152 
	C411.191071,41.563141 411.012268,40.277134 410.905945,38.389305 
	C410.817780,37.786522 410.729584,37.183743 410.511047,36.299530 
	C410.511047,36.299530 410.221649,36.188019 410.078033,35.461433 
	C409.914886,34.498489 409.751770,33.535545 409.447357,32.227577 
	C409.447357,32.227577 409.152069,31.999966 408.945465,31.279734 
	C405.718781,26.584492 401.351807,27.640240 396.334900,28.953220 
	C395.927155,28.955221 395.519379,28.957220 394.857727,28.642693 
	C394.534546,28.748283 394.211334,28.853874 393.466125,28.941021 
	C393.466125,28.941021 393.046722,28.890608 392.515259,28.416574 
	C387.875702,27.974270 388.929565,31.531883 389.100739,33.816914 
	C389.965118,45.355648 391.061401,56.877377 392.117645,68.401283 
	C393.731659,86.010429 395.366638,103.617683 397.019135,121.223259 
	C397.683380,128.300568 398.353363,135.378571 399.150635,142.441574 
	C399.481567,145.373276 400.839325,147.236893 404.328491,147.044006 
	C408.639038,146.805740 412.973175,147.007874 417.297089,146.996078 
	C424.436218,146.976593 424.472015,146.926529 423.350647,138.859985 
M372.879547,30.203751 
	C371.518341,29.144493 370.274902,27.441418 368.770294,27.166203 
	C366.028320,26.664669 363.097412,27.286360 360.306702,26.942041 
	C355.137268,26.304234 353.869141,28.473127 353.899841,33.421917 
	C354.098083,65.408669 353.998993,97.397255 354.001678,129.385239 
	C354.002075,134.050003 353.772095,138.738205 354.200806,143.364410 
	C354.320618,144.657394 356.372589,146.747192 357.610504,146.800735 
	C365.093414,147.124420 372.597382,146.949265 380.094208,146.971802 
	C382.800201,146.979935 384.157227,145.801651 383.928406,142.131317 
	C382.955658,134.089508 381.817535,126.063492 381.048370,118.002274 
	C379.853180,105.475739 379.019897,92.914726 377.831024,80.387512 
	C376.267761,63.915546 374.508423,47.462177 372.879547,30.203751 
M413.504669,1034.003052 
	C415.529449,1035.087036 417.561951,1036.157104 419.577881,1037.257324 
	C437.579102,1047.081665 456.035217,1054.970093 477.330353,1053.084473 
	C487.826965,1052.155029 495.488892,1047.439331 499.490784,1037.847412 
	C504.498108,1025.845825 505.256317,1013.219604 502.696106,1000.506409 
	C499.793701,986.094116 494.033691,972.799316 487.073181,959.851135 
	C473.348297,934.319763 454.691376,912.463501 436.713318,890.034302 
	C428.925232,880.317932 427.637268,879.273865 434.888794,868.617676 
	C442.272614,857.767151 450.008667,847.132202 456.898224,835.975403 
	C466.464020,820.484680 475.673370,804.755310 484.483398,788.822998 
	C490.773438,777.447998 496.500183,765.726868 501.857025,753.879272 
	C508.607971,738.948425 514.623291,723.685974 521.243835,708.693726 
	C522.099976,706.754944 524.604126,704.360413 526.464783,704.252930 
	C534.600586,703.783020 542.782471,704.188660 550.944092,704.057312 
	C556.430664,703.968933 562.061035,704.214539 567.364685,703.082031 
	C579.897400,700.405884 585.657288,690.586121 589.950378,679.713501 
	C600.841980,652.129578 610.880981,624.239929 618.164612,595.461609 
	C622.136230,579.769043 625.701660,563.959473 628.917053,548.094666 
	C631.063904,537.501770 632.818604,526.766174 633.756836,516.007996 
	C634.862488,503.330750 632.447266,491.436554 620.628113,483.952942 
	C604.693542,473.863586 588.583374,464.050446 572.501465,454.195587 
	C566.582458,450.568451 560.431030,447.384979 559.945923,439.115784 
	C559.541382,432.220337 559.276123,425.215820 557.827698,418.501526 
	C553.551331,398.678070 549.414612,378.779388 543.942810,359.269257 
	C535.472900,329.069031 522.203491,300.743958 505.783051,274.127197 
	C496.075256,258.391388 484.875793,243.459793 473.216309,229.083633 
	C465.021790,218.979752 455.292328,210.006805 445.555786,201.303513 
	C437.749512,194.325684 429.200592,188.055588 420.424744,182.323425 
	C413.075623,177.523178 405.899841,173.162506 405.671234,163.333466 
	C365.461060,163.333466 325.713776,163.333466 286.006531,163.333466 
	C285.212616,169.906967 282.627991,174.734756 277.202057,178.563736 
	C264.871826,187.264832 252.345764,195.859909 241.034439,205.790970 
	C226.117706,218.887451 213.549042,234.227005 201.842270,250.383560 
	C185.646423,272.735474 172.063004,296.494598 161.261154,321.766052 
	C151.862045,343.755798 144.083252,366.404266 139.567230,389.989319 
	C136.795776,404.463318 134.278961,418.994904 132.073135,433.565033 
	C130.760742,442.233704 129.142609,449.528229 119.945450,454.321564 
	C103.969421,462.647919 88.788422,472.518127 73.421120,481.979828 
	C69.983177,484.096588 66.668648,486.806946 64.136322,489.925354 
	C57.398109,498.222992 57.201866,508.324493 58.136513,518.235474 
	C59.740952,535.249023 61.639591,552.252991 64.082260,569.164551 
	C66.657532,586.994263 69.628906,604.787842 73.148140,622.453674 
	C76.126350,637.403625 88.793068,646.559692 104.060501,645.997620 
	C113.498955,645.650146 122.936348,645.230164 132.378189,645.032471 
	C139.748093,644.878113 141.653259,646.842346 143.969833,653.806091 
	C149.704926,671.045959 154.807159,688.590149 161.946075,705.248230 
	C173.899353,733.140198 186.954620,760.575134 200.131683,787.920288 
	C205.746979,799.573181 212.457367,810.753845 219.346069,821.724731 
	C229.806702,838.384216 240.836884,854.686768 251.665207,871.114563 
	C256.230835,878.041077 256.444946,881.108398 251.739639,887.713928 
	C246.123413,895.598389 240.058960,903.164795 234.481735,911.075562 
	C220.487488,930.925049 206.064270,950.554260 196.954147,973.329468 
	C190.135696,990.375427 184.530823,1007.734192 188.048615,1026.501953 
	C189.858887,1036.159790 192.371674,1045.523804 202.557037,1050.192505 
	C213.635849,1055.270630 224.903534,1053.961060 236.205475,1051.378784 
	C254.751984,1047.140869 270.944397,1037.825439 286.776733,1027.750732 
	C299.501617,1019.653381 312.058685,1011.267578 325.057983,1003.636230 
	C331.865540,999.639893 339.721863,997.152466 347.723755,998.203735 
	C360.706146,999.909180 371.702026,1006.491760 382.370026,1013.762817 
	C392.394104,1020.595154 402.748657,1026.942871 413.504669,1034.003052 
M337.996613,141.288986 
	C337.997742,107.660789 337.999023,74.032593 337.999939,40.404400 
	C338.000336,25.758696 338.000031,25.758881 323.210510,27.031982 
	C322.878967,27.060522 322.421204,26.938196 322.234192,27.112972 
	C321.149109,28.126923 319.367371,29.106922 319.209381,30.284615 
	C318.263947,37.332256 317.642212,44.425854 317.015930,51.513226 
	C315.923126,63.880268 315.056213,76.269012 313.820953,88.621300 
	C312.027527,106.555367 309.991394,124.465164 308.057892,142.385223 
	C307.735718,145.371201 308.588013,147.099884 312.075958,147.025391 
	C319.231049,146.872574 326.395325,146.848923 333.548676,147.040100 
	C337.178223,147.137085 338.311096,145.498566 337.996613,141.288986 
M302.786560,37.144352 
	C303.466858,26.522579 302.681244,25.803297 292.234161,27.480417 
	C290.928070,27.690088 289.593231,27.789097 288.320404,28.124287 
	C284.764130,29.060806 282.545959,31.314686 282.063171,35.032623 
	C280.017120,50.788395 278.007477,66.548882 275.969666,82.305725 
	C274.378113,94.611855 272.790192,106.918549 271.151520,119.218437 
	C270.167908,126.601532 269.035767,133.965042 268.078918,141.351410 
	C267.654633,144.626785 267.954193,147.320053 272.551361,147.052444 
	C277.532898,146.762436 282.548157,146.867310 287.541290,147.029282 
	C290.670715,147.130814 291.878937,146.016617 292.146912,142.787231 
	C292.968079,132.890930 294.148224,123.024628 295.172729,113.144989 
	C296.453064,100.798111 297.770721,88.454773 298.973846,76.100319 
	C300.209686,63.409367 301.326782,50.706848 302.786560,37.144352 
z"/>
<path fill="#E3E6EB" opacity="1.000000" stroke="none" 
	d="
M413.231232,1033.753418 
	C402.748657,1026.942871 392.394104,1020.595154 382.370026,1013.762817 
	C371.702026,1006.491760 360.706146,999.909180 347.723755,998.203735 
	C339.721863,997.152466 331.865540,999.639893 325.057983,1003.636230 
	C312.058685,1011.267578 299.501617,1019.653381 286.776733,1027.750732 
	C270.944397,1037.825439 254.751984,1047.140869 236.205475,1051.378784 
	C224.903534,1053.961060 213.635849,1055.270630 202.557037,1050.192505 
	C192.371674,1045.523804 189.858887,1036.159790 188.048615,1026.501953 
	C184.530823,1007.734192 190.135696,990.375427 196.954147,973.329468 
	C206.064270,950.554260 220.487488,930.925049 234.481735,911.075562 
	C240.058960,903.164795 246.123413,895.598389 251.739639,887.713928 
	C256.444946,881.108398 256.230835,878.041077 251.665207,871.114563 
	C240.836884,854.686768 229.806702,838.384216 219.346069,821.724731 
	C212.457367,810.753845 205.746979,799.573181 200.131683,787.920288 
	C186.954620,760.575134 173.899353,733.140198 161.946075,705.248230 
	C154.807159,688.590149 149.704926,671.045959 143.969833,653.806091 
	C141.653259,646.842346 139.748093,644.878113 132.378189,645.032471 
	C122.936348,645.230164 113.498955,645.650146 104.060501,645.997620 
	C88.793068,646.559692 76.126350,637.403625 73.148140,622.453674 
	C69.628906,604.787842 66.657532,586.994263 64.082260,569.164551 
	C61.639591,552.252991 59.740952,535.249023 58.136513,518.235474 
	C57.201866,508.324493 57.398109,498.222992 64.136322,489.925354 
	C66.668648,486.806946 69.983177,484.096588 73.421120,481.979828 
	C88.788422,472.518127 103.969421,462.647919 119.945450,454.321564 
	C129.142609,449.528229 130.760742,442.233704 132.073135,433.565033 
	C134.278961,418.994904 136.795776,404.463318 139.567230,389.989319 
	C144.083252,366.404266 151.862045,343.755798 161.261154,321.766052 
	C172.063004,296.494598 185.646423,272.735474 201.842270,250.383560 
	C213.549042,234.227005 226.117706,218.887451 241.034439,205.790970 
	C252.345764,195.859909 264.871826,187.264832 277.202057,178.563736 
	C282.627991,174.734756 285.212616,169.906967 286.006531,163.333466 
	C325.713776,163.333466 365.461060,163.333466 405.671234,163.333466 
	C405.899841,173.162506 413.075623,177.523178 420.424744,182.323425 
	C429.200592,188.055588 437.749512,194.325684 445.555786,201.303513 
	C455.292328,210.006805 465.021790,218.979752 473.216309,229.083633 
	C484.875793,243.459793 496.075256,258.391388 505.783051,274.127197 
	C522.203491,300.743958 535.472900,329.069031 543.942810,359.269257 
	C549.414612,378.779388 553.551331,398.678070 557.827698,418.501526 
	C559.276123,425.215820 559.541382,432.220337 559.945923,439.115784 
	C560.431030,447.384979 566.582458,450.568451 572.501465,454.195587 
	C588.583374,464.050446 604.693542,473.863586 620.628113,483.952942 
	C632.447266,491.436554 634.862488,503.330750 633.756836,516.007996 
	C632.818604,526.766174 631.063904,537.501770 628.917053,548.094666 
	C625.701660,563.959473 622.136230,579.769043 618.164612,595.461609 
	C610.880981,624.239929 600.841980,652.129578 589.950378,679.713501 
	C585.657288,690.586121 579.897400,700.405884 567.364685,703.082031 
	C562.061035,704.214539 556.430664,703.968933 550.944092,704.057312 
	C542.782471,704.188660 534.600586,703.783020 526.464783,704.252930 
	C524.604126,704.360413 522.099976,706.754944 521.243835,708.693726 
	C514.623291,723.685974 508.607971,738.948425 501.857025,753.879272 
	C496.500183,765.726868 490.773438,777.447998 484.483398,788.822998 
	C475.673370,804.755310 466.464020,820.484680 456.898224,835.975403 
	C450.008667,847.132202 442.272614,857.767151 434.888794,868.617676 
	C427.637268,879.273865 428.925232,880.317932 436.713318,890.034302 
	C454.691376,912.463501 473.348297,934.319763 487.073181,959.851135 
	C494.033691,972.799316 499.793701,986.094116 502.696106,1000.506409 
	C505.256317,1013.219604 504.498108,1025.845825 499.490784,1037.847412 
	C495.488892,1047.439331 487.826965,1052.155029 477.330353,1053.084473 
	C456.035217,1054.970093 437.579102,1047.081665 419.577881,1037.257324 
	C417.561951,1036.157104 415.529449,1035.087036 413.231232,1033.753418 
M237.455994,428.109406 
	C255.752853,436.854095 274.549377,444.210388 294.933990,448.249817 
	C293.029144,451.394806 291.398254,454.035583 289.817474,456.706055 
	C279.941071,473.390564 270.653381,490.275513 266.631958,509.594635 
	C263.584259,524.236145 269.028870,536.013367 281.986542,543.089355 
	C300.422913,553.157288 320.460510,556.081970 340.899536,556.827026 
	C350.407562,557.173645 360.015076,555.967651 369.520233,554.937134 
	C383.457245,553.426208 397.002197,550.128357 409.333252,543.204712 
	C422.910156,535.581543 427.884003,525.134644 425.724792,512.209595 
	C423.088837,496.430511 416.931824,481.723633 408.583771,467.974121 
	C404.774841,461.700684 401.416473,455.153656 397.724396,448.497528 
	C399.962158,447.901520 401.688843,447.428345 403.422424,446.982086 
	C423.187103,441.894043 442.287628,435.017059 460.243042,425.255188 
	C466.563690,421.818848 472.761261,418.032867 478.538666,413.762115 
	C482.663940,410.712677 482.703644,406.435333 479.805115,402.506927 
	C477.564301,399.470062 472.773926,399.198975 468.691833,401.677887 
	C461.825195,405.847687 455.074951,410.263885 447.947266,413.939362 
	C420.456635,428.115051 391.031708,435.770294 360.309631,437.831451 
	C341.812042,439.072418 323.148651,438.514191 304.908173,434.786499 
	C275.906647,428.859650 248.573456,418.543060 224.012527,401.600586 
	C219.632050,398.578888 214.713791,399.558563 211.869247,403.692505 
	C209.513870,407.115570 210.921722,412.378296 215.185562,415.015747 
	C222.302246,419.417816 229.535950,423.630737 237.455994,428.109406 
M421.485168,277.873962 
	C416.556030,276.915985 411.654694,275.358337 406.691772,275.127869 
	C397.080200,274.681549 389.698212,279.346436 385.292938,287.646637 
	C380.668701,296.359406 380.041626,305.750519 385.171234,314.532288 
	C390.804901,324.177032 399.752533,327.326172 410.773590,327.156647 
	C423.507446,326.960785 434.246490,315.066437 434.994141,303.036407 
	C435.667542,292.201355 431.238251,283.953247 421.485168,277.873962 
z"/>
<path fill="#D34B45" opacity="1.000000" stroke="none" 
	d="
M337.993347,141.760437 
	C338.311096,145.498566 337.178223,147.137085 333.548676,147.040100 
	C326.395325,146.848923 319.231049,146.872574 312.075958,147.025391 
	C308.588013,147.099884 307.735718,145.371201 308.057892,142.385223 
	C309.991394,124.465164 312.027527,106.555367 313.820953,88.621300 
	C315.056213,76.269012 315.923126,63.880268 317.015930,51.513226 
	C317.642212,44.425854 318.263947,37.332256 319.209381,30.284615 
	C319.367371,29.106922 321.149109,28.126923 322.234192,27.112972 
	C322.421204,26.938196 322.878967,27.060522 323.210510,27.031982 
	C338.000031,25.758881 338.000336,25.758696 337.999939,40.404400 
	C337.999023,74.032593 337.997742,107.660789 337.993347,141.760437 
z"/>
<path fill="#D34B45" opacity="1.000000" stroke="none" 
	d="
M302.641235,37.576874 
	C301.326782,50.706848 300.209686,63.409367 298.973846,76.100319 
	C297.770721,88.454773 296.453064,100.798111 295.172729,113.144989 
	C294.148224,123.024628 292.968079,132.890930 292.146912,142.787231 
	C291.878937,146.016617 290.670715,147.130814 287.541290,147.029282 
	C282.548157,146.867310 277.532898,146.762436 272.551361,147.052444 
	C267.954193,147.320053 267.654633,144.626785 268.078918,141.351410 
	C269.035767,133.965042 270.167908,126.601532 271.151520,119.218437 
	C272.790192,106.918549 274.378113,94.611855 275.969666,82.305725 
	C278.007477,66.548882 280.017120,50.788395 282.063171,35.032623 
	C282.545959,31.314686 284.764130,29.060806 288.320404,28.124287 
	C289.593231,27.789097 290.928070,27.690088 292.234161,27.480417 
	C302.681244,25.803297 303.466858,26.522579 302.641235,37.576874 
z"/>
<path fill="#D34B45" opacity="1.000000" stroke="none" 
	d="
M372.833405,31.000809 
	C374.508423,47.462177 376.267761,63.915546 377.831024,80.387512 
	C379.019897,92.914726 379.853180,105.475739 381.048370,118.002274 
	C381.817535,126.063492 382.955658,134.089508 383.423523,142.565414 
	C377.088440,142.998459 371.257996,143.028152 365.428070,142.988327 
	C358.639618,142.941956 358.018890,142.352478 358.013855,135.518143 
	C357.990112,103.202133 357.990662,70.886086 358.012695,38.570072 
	C358.017395,31.659172 358.628082,31.080481 365.337463,31.007853 
	C367.835846,30.980810 370.334747,31.001749 372.833405,31.000809 
z"/>
<path fill="#D34B45" opacity="1.000000" stroke="none" 
	d="
M410.221649,36.188019 
	C410.221649,36.188019 410.511047,36.299530 410.456787,36.650021 
	C410.546173,37.664051 410.689789,38.327591 410.833435,38.991127 
	C411.012268,40.277134 411.191071,41.563141 411.386230,43.424831 
	C411.546173,44.664047 411.689819,45.327587 411.833435,45.991127 
	C412.015656,46.957165 412.197876,47.923203 412.391327,49.444878 
	C412.546204,50.664047 412.689819,51.327587 412.833435,51.991127 
	C413.009644,53.601204 413.185852,55.211281 413.382324,57.410934 
	C413.546173,58.664051 413.689819,59.327591 413.833435,59.991127 
	C414.007660,61.927849 414.181915,63.864571 414.379364,66.400894 
	C414.546173,67.664047 414.689789,68.327591 414.833435,68.991135 
	C415.007690,70.927856 415.181915,72.864571 415.379395,75.400894 
	C415.546204,76.664040 415.689850,77.327583 415.833466,77.991135 
	C416.009674,79.601204 416.185883,81.211281 416.382324,83.410934 
	C416.546173,84.664047 416.689819,85.327591 416.833435,85.991135 
	C417.012238,87.277138 417.191071,88.563148 417.386230,90.424828 
	C417.546173,91.664047 417.689819,92.327591 417.833435,92.991135 
	C418.009644,94.601212 418.185883,96.211281 418.382324,98.410934 
	C418.546204,99.664047 418.689819,100.327591 418.833435,100.991135 
	C419.009644,102.601212 419.185883,104.211281 419.382324,106.410934 
	C419.546204,107.664047 419.689819,108.327591 419.833435,108.991135 
	C420.012268,110.277138 420.191071,111.563148 420.386230,113.424828 
	C420.546173,114.664047 420.689789,115.327591 420.833435,115.991135 
	C421.007690,117.927856 421.181915,119.864571 421.379364,122.400894 
	C421.546173,123.664047 421.689819,124.327591 421.833435,124.991135 
	C422.006256,127.256531 422.179077,129.521927 422.377258,132.393921 
	C422.546204,133.664017 422.689819,134.327545 422.833435,134.991074 
	C423.005859,136.280701 423.178253,137.570343 423.271484,139.503937 
	C419.640381,145.283951 414.343353,142.608078 409.848206,142.873398 
	C403.530701,143.246277 402.468842,141.809158 402.010864,135.460800 
	C401.318451,125.862488 400.616241,116.262695 399.729828,106.680954 
	C397.498169,82.556793 395.146515,58.443741 392.896179,34.321266 
	C392.729187,32.531307 392.986603,30.701754 393.046722,28.890608 
	C393.046722,28.890608 393.466125,28.941021 393.983154,28.951164 
	C394.704010,28.960615 394.907806,28.959919 395.111633,28.959221 
	C395.519379,28.957220 395.927155,28.955221 396.901489,29.185629 
	C401.362732,30.278679 405.257385,31.139320 409.152069,31.999964 
	C409.152069,31.999966 409.447357,32.227577 409.387512,32.664917 
	C409.625641,34.130848 409.923645,35.159431 410.221649,36.188019 
z"/>
<path fill="#D34B45" opacity="1.000000" stroke="none" 
	d="
M372.856476,30.602280 
	C370.334747,31.001749 367.835846,30.980810 365.337463,31.007853 
	C358.628082,31.080481 358.017395,31.659172 358.012695,38.570072 
	C357.990662,70.886086 357.990112,103.202133 358.013855,135.518143 
	C358.018890,142.352478 358.639618,142.941956 365.428070,142.988327 
	C371.257996,143.028152 377.088440,142.998459 383.376038,142.999359 
	C384.157227,145.801651 382.800201,146.979935 380.094208,146.971802 
	C372.597382,146.949265 365.093414,147.124420 357.610504,146.800735 
	C356.372589,146.747192 354.320618,144.657394 354.200806,143.364410 
	C353.772095,138.738205 354.002075,134.050003 354.001678,129.385239 
	C353.998993,97.397255 354.098083,65.408669 353.899841,33.421917 
	C353.869141,28.473127 355.137268,26.304234 360.306702,26.942041 
	C363.097412,27.286360 366.028320,26.664669 368.770294,27.166203 
	C370.274902,27.441418 371.518341,29.144493 372.856476,30.602280 
z"/>
<path fill="#D34B45" opacity="1.000000" stroke="none" 
	d="
M392.781006,28.653591 
	C392.986603,30.701754 392.729187,32.531307 392.896179,34.321266 
	C395.146515,58.443741 397.498169,82.556793 399.729828,106.680954 
	C400.616241,116.262695 401.318451,125.862488 402.010864,135.460800 
	C402.468842,141.809158 403.530701,143.246277 409.848206,142.873398 
	C414.343353,142.608078 419.640381,145.283951 423.393463,139.875427 
	C424.472015,146.926529 424.436218,146.976593 417.297089,146.996078 
	C412.973175,147.007874 408.639038,146.805740 404.328491,147.044006 
	C400.839325,147.236893 399.481567,145.373276 399.150635,142.441574 
	C398.353363,135.378571 397.683380,128.300568 397.019135,121.223259 
	C395.366638,103.617683 393.731659,86.010429 392.117645,68.401283 
	C391.061401,56.877377 389.965118,45.355648 389.100739,33.816914 
	C388.929565,31.531883 387.875702,27.974270 392.781006,28.653591 
z"/>
<path fill="#D34B45" opacity="1.000000" stroke="none" 
	d="
M409.048767,31.639847 
	C405.257385,31.139320 401.362732,30.278679 397.206207,29.159142 
	C401.351807,27.640240 405.718781,26.584492 409.048767,31.639847 
z"/>
<path fill="#D34B45" opacity="1.000000" stroke="none" 
	d="
M410.149841,35.824722 
	C409.923645,35.159431 409.625641,34.130848 409.458130,32.837429 
	C409.751770,33.535545 409.914886,34.498489 410.149841,35.824722 
z"/>
<path fill="#D34B45" opacity="1.000000" stroke="none" 
	d="
M419.869720,108.690216 
	C419.689819,108.327591 419.546204,107.664047 419.522003,106.790733 
	C419.729584,107.183739 419.817780,107.786522 419.869720,108.690216 
z"/>
<path fill="#D34B45" opacity="1.000000" stroke="none" 
	d="
M422.869690,134.690170 
	C422.689819,134.327545 422.546204,133.664017 422.521973,132.790726 
	C422.729553,133.183716 422.817749,133.786499 422.869690,134.690170 
z"/>
<path fill="#D34B45" opacity="1.000000" stroke="none" 
	d="
M421.869690,124.690216 
	C421.689819,124.327591 421.546173,123.664047 421.521973,122.790733 
	C421.729553,123.183746 421.817749,123.786530 421.869690,124.690216 
z"/>
<path fill="#D34B45" opacity="1.000000" stroke="none" 
	d="
M420.869690,115.690216 
	C420.689789,115.327591 420.546173,114.664047 420.521973,113.790733 
	C420.729553,114.183746 420.817749,114.786530 420.869690,115.690216 
z"/>
<path fill="#D34B45" opacity="1.000000" stroke="none" 
	d="
M418.869690,100.690216 
	C418.689819,100.327591 418.546204,99.664047 418.521973,98.790733 
	C418.729584,99.183739 418.817780,99.786522 418.869690,100.690216 
z"/>
<path fill="#D34B45" opacity="1.000000" stroke="none" 
	d="
M417.869690,92.690216 
	C417.689819,92.327591 417.546173,91.664047 417.521973,90.790733 
	C417.729584,91.183746 417.817749,91.786522 417.869690,92.690216 
z"/>
<path fill="#D34B45" opacity="1.000000" stroke="none" 
	d="
M416.869690,85.690216 
	C416.689819,85.327591 416.546173,84.664047 416.521973,83.790733 
	C416.729584,84.183746 416.817749,84.786522 416.869690,85.690216 
z"/>
<path fill="#D34B45" opacity="1.000000" stroke="none" 
	d="
M415.869690,77.690216 
	C415.689850,77.327583 415.546204,76.664040 415.521973,75.790726 
	C415.729553,76.183746 415.817749,76.786522 415.869690,77.690216 
z"/>
<path fill="#D34B45" opacity="1.000000" stroke="none" 
	d="
M414.869690,68.690216 
	C414.689789,68.327591 414.546173,67.664047 414.521973,66.790733 
	C414.729584,67.183746 414.817749,67.786522 414.869690,68.690216 
z"/>
<path fill="#D34B45" opacity="1.000000" stroke="none" 
	d="
M413.869690,59.690216 
	C413.689819,59.327591 413.546173,58.664051 413.521973,57.790741 
	C413.729553,58.183746 413.817749,58.786530 413.869690,59.690216 
z"/>
<path fill="#D34B45" opacity="1.000000" stroke="none" 
	d="
M412.869690,51.690216 
	C412.689819,51.327587 412.546204,50.664047 412.521973,49.790737 
	C412.729584,50.183743 412.817749,50.786526 412.869690,51.690216 
z"/>
<path fill="#D34B45" opacity="1.000000" stroke="none" 
	d="
M411.869690,45.690216 
	C411.689819,45.327587 411.546173,44.664047 411.521973,43.790737 
	C411.729584,44.183743 411.817780,44.786522 411.869690,45.690216 
z"/>
<path fill="#D34B45" opacity="1.000000" stroke="none" 
	d="
M410.869690,38.690216 
	C410.689789,38.327591 410.546173,37.664051 410.521973,36.790737 
	C410.729584,37.183743 410.817780,37.786522 410.869690,38.690216 
z"/>
<path fill="#D34B45" opacity="1.000000" stroke="none" 
	d="
M394.984680,28.800957 
	C394.907806,28.959919 394.704010,28.960615 394.194153,28.960386 
	C394.211334,28.853874 394.534546,28.748283 394.984680,28.800957 
z"/>
<path fill="#707070" opacity="1.000000" stroke="none" 
	d="
M237.088196,428.016357 
	C229.535950,423.630737 222.302246,419.417816 215.185562,415.015747 
	C210.921722,412.378296 209.513870,407.115570 211.869247,403.692505 
	C214.713791,399.558563 219.632050,398.578888 224.012527,401.600586 
	C248.573456,418.543060 275.906647,428.859650 304.908173,434.786499 
	C323.148651,438.514191 341.812042,439.072418 360.309631,437.831451 
	C391.031708,435.770294 420.456635,428.115051 447.947266,413.939362 
	C455.074951,410.263885 461.825195,405.847687 468.691833,401.677887 
	C472.773926,399.198975 477.564301,399.470062 479.805115,402.506927 
	C482.703644,406.435333 482.663940,410.712677 478.538666,413.762115 
	C472.761261,418.032867 466.563690,421.818848 460.243042,425.255188 
	C442.287628,435.017059 423.187103,441.894043 403.422424,446.982086 
	C401.688843,447.428345 399.962158,447.901520 397.724396,448.497528 
	C401.416473,455.153656 404.774841,461.700684 408.583771,467.974121 
	C416.931824,481.723633 423.088837,496.430511 425.724792,512.209595 
	C427.884003,525.134644 422.910156,535.581543 409.333252,543.204712 
	C397.002197,550.128357 383.457245,553.426208 369.520233,554.937134 
	C360.015076,555.967651 350.407562,557.173645 340.899536,556.827026 
	C320.460510,556.081970 300.422913,553.157288 281.986542,543.089355 
	C269.028870,536.013367 263.584259,524.236145 266.631958,509.594635 
	C270.653381,490.275513 279.941071,473.390564 289.817474,456.706055 
	C291.398254,454.035583 293.029144,451.394806 294.933990,448.249817 
	C274.549377,444.210388 255.752853,436.854095 237.088196,428.016357 
M308.052246,456.427521 
	C307.151184,457.991364 306.245178,459.552368 305.349854,461.119476 
	C296.471222,476.660614 287.715210,492.243439 282.705688,509.610077 
	C279.948700,519.167725 281.282166,524.005432 289.603058,529.173706 
	C302.171295,536.980042 316.524200,539.818115 330.815735,540.672729 
	C344.590973,541.496521 358.623047,540.458191 372.358215,538.754089 
	C383.482697,537.373901 394.514282,534.273865 404.170044,527.932068 
	C409.191315,524.634094 411.530212,518.756836 410.311859,513.610229 
	C404.928314,490.869080 392.213257,471.615387 381.446960,451.518219 
	C373.604462,452.381439 366.265381,453.909180 358.940948,453.841919 
	C344.735077,453.711456 330.538422,452.662476 316.335693,452.045258 
	C313.108246,451.905029 309.447388,451.116455 308.052246,456.427521 
z"/>
<path fill="#707070" opacity="1.000000" stroke="none" 
	d="
M421.850830,277.970642 
	C431.238251,283.953247 435.667542,292.201355 434.994141,303.036407 
	C434.246490,315.066437 423.507446,326.960785 410.773590,327.156647 
	C399.752533,327.326172 390.804901,324.177032 385.171234,314.532288 
	C380.041626,305.750519 380.668701,296.359406 385.292938,287.646637 
	C389.698212,279.346436 397.080200,274.681549 406.691772,275.127869 
	C411.654694,275.358337 416.556030,276.915985 421.850830,277.970642 
z"/>
<path fill="#E3E6EB" opacity="1.000000" stroke="none" 
	d="
M308.316040,456.147461 
	C309.447388,451.116455 313.108246,451.905029 316.335693,452.045258 
	C330.538422,452.662476 344.735077,453.711456 358.940948,453.841919 
	C366.265381,453.909180 373.604462,452.381439 381.446960,451.518219 
	C392.213257,471.615387 404.928314,490.869080 410.311859,513.610229 
	C411.530212,518.756836 409.191315,524.634094 404.170044,527.932068 
	C394.514282,534.273865 383.482697,537.373901 372.358215,538.754089 
	C358.623047,540.458191 344.590973,541.496521 330.815735,540.672729 
	C316.524200,539.818115 302.171295,536.980042 289.603058,529.173706 
	C281.282166,524.005432 279.948700,519.167725 282.705688,509.610077 
	C287.715210,492.243439 296.471222,476.660614 305.349854,461.119476 
	C306.245178,459.552368 307.151184,457.991364 308.316040,456.147461 
z"/>
</svg>